<svg width="14" height="14" viewBox="0 0 14 14" fill="none" xmlns="http://www.w3.org/2000/svg">
<path d="M14 2.42836C14 2.67995 13.9508 2.87684 13.8523 3.01904C13.7648 3.16125 13.7047 3.25422 13.6718 3.29798L13.0976 3.85585C13.0757 3.53863 12.9827 3.22141 12.8186 2.90419C12.6655 2.58697 12.4358 2.27522 12.1295 1.96894C12.1186 1.958 12.1076 1.94707 12.0967 1.93613C12.0967 1.92519 12.0912 1.91425 12.0803 1.90331C12.0693 1.90331 12.0584 1.89784 12.0475 1.8869C12.0365 1.87596 12.0311 1.86503 12.0311 1.85409C11.7248 1.55875 11.413 1.32904 11.0958 1.16496C10.7786 1.00088 10.4559 0.907901 10.1277 0.886024L10.702 0.328157C10.7348 0.284403 10.8223 0.218771 10.9645 0.131263C11.1177 0.0437543 11.3146 0 11.5552 0C11.8178 0 12.0803 0.0711007 12.3428 0.213302C12.6163 0.344565 12.8897 0.546928 13.1632 0.820393C13.4367 1.09386 13.6445 1.36732 13.7867 1.64079C13.9289 1.90331 14 2.16584 14 2.42836ZM11.588 2.41195C11.8615 2.68542 12.0639 2.95888 12.1951 3.23235C12.3373 3.49487 12.4084 3.7574 12.4084 4.01992C12.4084 4.26057 12.3592 4.45747 12.2608 4.61061C12.1733 4.75281 12.1131 4.84032 12.0803 4.87313L4.64752 12.3059C4.64752 12.3059 4.64752 12.3114 4.64752 12.3223C4.63659 12.3223 4.63112 12.3223 4.63112 12.3223C4.63112 12.3223 4.62565 12.3278 4.61471 12.3387C4.61471 12.3387 4.60924 12.3442 4.5983 12.3551C4.5983 12.3551 4.59283 12.3551 4.58189 12.3551C4.58189 12.3551 4.58189 12.3606 4.58189 12.3715C4.58189 12.3715 4.57642 12.3715 4.56549 12.3715C4.56549 12.3825 4.56002 12.3879 4.54908 12.3879C4.54908 12.3879 4.54361 12.3879 4.53267 12.3879C4.53267 12.3879 4.53267 12.3934 4.53267 12.4043C4.53267 12.4043 4.5272 12.4043 4.51626 12.4043C4.51626 12.4043 4.51626 12.4098 4.51626 12.4207C4.51626 12.4207 4.51079 12.4207 4.49985 12.4207C4.48891 12.4207 4.48345 12.4207 4.48345 12.4207C4.48345 12.4207 4.48345 12.4262 4.48345 12.4372C4.47251 12.4372 4.46704 12.4372 4.46704 12.4372C4.46704 12.4372 4.46157 12.4372 4.45063 12.4372C4.45063 12.4372 4.45063 12.4426 4.45063 12.4536C4.45063 12.4536 4.44516 12.4536 4.43422 12.4536L0.972165 13.9303C0.928411 13.9521 0.879187 13.9686 0.824495 13.9795C0.78074 13.9904 0.736986 13.9959 0.693232 13.9959C0.682293 13.9959 0.671355 13.9959 0.660416 13.9959C0.649477 13.9959 0.638539 13.9959 0.6276 13.9959C0.55103 13.985 0.47446 13.9631 0.39789 13.9303C0.32132 13.8975 0.255689 13.8482 0.200996 13.7826C0.200996 13.7826 0.195527 13.7826 0.184588 13.7826C0.184588 13.7717 0.179119 13.7662 0.16818 13.7662C0.16818 13.7552 0.162711 13.7498 0.151773 13.7498C0.151773 13.7498 0.151773 13.7443 0.151773 13.7334C0.151773 13.7334 0.146303 13.7279 0.135365 13.717C0.135365 13.706 0.129895 13.7006 0.118957 13.7006C0.118957 13.6896 0.118957 13.6841 0.118957 13.6841C0.118957 13.6841 0.113488 13.6787 0.102549 13.6677C0.102549 13.6677 0.102549 13.6623 0.102549 13.6513C0.0478562 13.5638 0.0150405 13.4708 0.00410196 13.3724C-0.00683661 13.263 0.00410196 13.1591 0.0369177 13.0606C0.0369177 13.0497 0.0369177 13.0442 0.0369177 13.0442C0.0478562 13.0333 0.0533255 13.0224 0.0533255 13.0114L1.53003 9.54937C1.54097 9.54937 1.54644 9.54937 1.54644 9.54937C1.54644 9.53843 1.54644 9.53296 1.54644 9.53296C1.54644 9.53296 1.54644 9.52749 1.54644 9.51655C1.55738 9.51655 1.56285 9.51655 1.56285 9.51655C1.56285 9.50562 1.56285 9.50015 1.56285 9.50015C1.56285 9.48921 1.56285 9.48374 1.56285 9.48374C1.57379 9.48374 1.57926 9.48374 1.57926 9.48374C1.57926 9.4728 1.57926 9.46733 1.57926 9.46733C1.59019 9.45639 1.59566 9.45092 1.59566 9.45092C1.59566 9.43998 1.59566 9.43451 1.59566 9.43451C1.6066 9.43451 1.61207 9.42905 1.61207 9.41811C1.61207 9.41811 1.61754 9.41264 1.62848 9.4017C1.63942 9.39076 1.64489 9.38529 1.64489 9.38529C1.64489 9.37435 1.64489 9.36888 1.64489 9.36888C1.65583 9.36888 1.6613 9.36888 1.6613 9.36888C1.6613 9.36888 1.6613 9.36341 1.6613 9.35248C1.67223 9.35248 1.6777 9.35248 1.6777 9.35248C1.6777 9.34154 1.6777 9.33607 1.6777 9.33607C1.68864 9.33607 1.69411 9.33607 1.69411 9.33607L9.11046 1.90331C9.15421 1.8705 9.24719 1.81033 9.38939 1.72282C9.53159 1.62438 9.72849 1.57515 9.98008 1.57515C10.2426 1.57515 10.5051 1.64625 10.7677 1.78846C11.0411 1.93066 11.3146 2.13849 11.588 2.41195ZM3.66305 10.3205C3.41147 10.0799 3.19269 9.92128 3.00674 9.84471C2.82078 9.7572 2.66764 9.71345 2.54732 9.71345C2.42699 9.71345 2.33402 9.73533 2.26839 9.77908C2.21369 9.8119 2.18635 9.8283 2.18635 9.8283L1.97304 10.3205L0.693232 13.2904L4.15529 11.8137C4.15529 11.8137 4.19357 11.6933 4.27014 11.4527C4.35765 11.2011 4.15529 10.8237 3.66305 10.3205ZM11.0958 2.90419C10.8442 2.6526 10.6255 2.48852 10.4395 2.41195C10.2535 2.32445 10.1004 2.28069 9.98008 2.28069C9.84881 2.28069 9.75037 2.30257 9.68473 2.34632C9.63004 2.39008 9.6027 2.41195 9.6027 2.41195L2.94111 9.05713C3.14894 9.11183 3.3513 9.20481 3.5482 9.33607C3.75603 9.45639 3.95839 9.62047 4.15529 9.8283C4.36312 10.0361 4.5272 10.244 4.64752 10.4518C4.77879 10.6487 4.87176 10.8456 4.92646 11.0425L11.588 4.3809C11.588 4.3809 11.6263 4.26057 11.7029 4.01992C11.7904 3.76834 11.588 3.39643 11.0958 2.90419Z" fill="#D56E4D"/>
</svg>
