<svg width="14" height="15" viewBox="0 0 14 15" fill="none" xmlns="http://www.w3.org/2000/svg">
<path d="M4.79901 12.5154C4.69544 12.5154 4.60337 12.4809 4.52281 12.4118C4.45376 12.3313 4.41924 12.245 4.41924 12.1529V5.88656H5.16153V12.1529C5.16153 12.245 5.127 12.3313 5.05795 12.4118C4.9889 12.4809 4.90259 12.5154 4.79901 12.5154ZM7.37115 12.1529V5.88656H6.62885V12.1529C6.62885 12.245 6.66338 12.3313 6.73243 12.4118C6.81299 12.4809 6.90506 12.5154 7.00863 12.5154C7.1007 12.5154 7.18126 12.4809 7.25031 12.4118C7.33087 12.3313 7.37115 12.245 7.37115 12.1529ZM9.58076 12.1529V5.88656H8.83847V12.1529C8.83847 12.245 8.873 12.3313 8.94205 12.4118C9.02261 12.4809 9.11467 12.5154 9.21825 12.5154C9.31032 12.5154 9.39088 12.4809 9.45993 12.4118C9.54048 12.3313 9.58076 12.245 9.58076 12.1529ZM14 2.93465V4.41924C14 4.61488 13.9252 4.7875 13.7756 4.93711C13.6375 5.07522 13.4649 5.14427 13.2577 5.14427H0.742293C0.535142 5.14427 0.356761 5.07522 0.207152 4.93711C0.0690506 4.7875 0 4.61488 0 4.41924V2.93465C0 2.73901 0.0690506 2.57213 0.207152 2.43403C0.356761 2.28442 0.535142 2.20962 0.742293 2.20962H3.6942V0.725031C3.6942 0.529388 3.76326 0.362515 3.90136 0.224414C4.05097 0.0748048 4.22359 0 4.41924 0H9.58076C9.78792 0 9.96054 0.0748048 10.0986 0.224414C10.2483 0.362515 10.3231 0.529388 10.3231 0.725031V2.20962H13.2577C13.4649 2.20962 13.6375 2.28442 13.7756 2.43403C13.9252 2.57213 14 2.73901 14 2.93465ZM4.41924 2.20962H9.58076V0.725031H4.41924V2.20962ZM13.2577 2.93465H0.742293V4.41924H13.2577V2.93465ZM11.7904 5.88656V12.5154C11.7904 12.9182 11.6465 13.2635 11.3588 13.5512C11.0711 13.8389 10.7259 13.9827 10.3231 13.9827H3.6942C3.2799 13.9827 2.92889 13.8389 2.64118 13.5512C2.35347 13.2635 2.20962 12.9182 2.20962 12.5154V5.88656H1.48459V12.5154C1.48459 13.1254 1.69749 13.649 2.1233 14.0863C2.56062 14.5121 3.08426 14.725 3.6942 14.725H10.3231C10.933 14.725 11.4509 14.5121 11.8767 14.0863C12.314 13.649 12.5327 13.1254 12.5327 12.5154V5.88656H11.7904Z" fill="#D56E4D"/>
</svg>
