<svg width="24" height="24" viewBox="0 0 24 24" fill="none" xmlns="http://www.w3.org/2000/svg">
<path fill-rule="evenodd" clip-rule="evenodd" d="M13.361 7.55441C13.3305 7.58408 13.2964 7.60959 13.2594 7.63028L7.19793 10.9867L6.14815 13.5178L8.71977 14.6901C8.83844 14.7442 8.93166 14.8455 8.97908 14.9716C9.0265 15.0977 9.02414 15.2384 8.97263 15.3628C8.92111 15.4871 8.82454 15.5848 8.70413 15.6345C8.58385 15.6841 8.44954 15.6816 8.33099 15.6276L2.29326 12.875C2.17459 12.821 2.08136 12.7198 2.03395 12.5936C1.98653 12.4674 1.98889 12.3268 2.0404 12.2025C2.09204 12.0782 2.18861 11.9805 2.3089 11.9307C2.42918 11.881 2.56349 11.8835 2.68203 11.9376L5.25366 13.1099L6.30344 10.5789L4.51135 3.64214C4.49857 3.59204 4.49323 3.5405 4.49534 3.48923C4.49708 3.44602 4.50403 3.40307 4.5162 3.3613C4.53047 3.31224 4.55157 3.26591 4.57876 3.22374C4.60222 3.18756 4.63002 3.15451 4.6618 3.12549C4.73119 3.06224 4.8161 3.02085 4.90696 3.00602C4.9977 2.99131 5.09067 3.00368 5.17508 3.04181L13.2255 6.71188C13.3096 6.75053 13.3816 6.81339 13.4333 6.89317C13.4849 6.97281 13.514 7.06625 13.5171 7.16255C13.5202 7.25795 13.4976 7.3523 13.452 7.43494C13.4274 7.47958 13.3968 7.51979 13.361 7.55441ZM11.9063 7.22515L5.71654 4.40333L6.22461 6.30702L10.2498 8.14199L11.9063 7.22515ZM9.63027 12.3406C9.67409 12.4371 9.74286 12.5189 9.82876 12.5766L16.3134 16.8915L17.2708 19.8164L14.299 20.8857C14.2134 20.9165 14.1372 20.9688 14.0767 21.0369C14.0402 21.0778 14.0094 21.1245 13.9854 21.1758C13.9217 21.3123 13.9124 21.4696 13.9595 21.6133C14.0064 21.757 14.1059 21.8751 14.2362 21.9419C14.3664 22.0085 14.5164 22.0183 14.6536 21.969L21.6309 19.4588C21.7679 19.4095 21.8808 19.3051 21.9445 19.1686C22.0081 19.0322 22.0174 18.8748 21.9704 18.7312C21.9234 18.5875 21.8238 18.4692 21.6937 18.4026C21.5635 18.3358 21.4134 18.3261 21.2763 18.3754L18.3044 19.4446L17.347 16.5196L19.9381 8.93948C19.9723 8.83863 19.9786 8.72983 19.9567 8.62533C19.9348 8.52082 19.8854 8.42491 19.814 8.34839C19.742 8.27135 19.6506 8.21708 19.5505 8.19209C19.4891 8.17687 19.4261 8.17283 19.364 8.17999C19.3247 8.18454 19.2857 8.19352 19.2478 8.20706L9.9447 11.554C9.84738 11.5894 9.76161 11.6528 9.69718 11.7371C9.63276 11.8213 9.59229 11.9229 9.58062 12.0302C9.5692 12.1365 9.58633 12.244 9.63027 12.3406ZM11.3743 12.2506L18.5274 9.67712L17.7982 11.7558L13.1467 13.4293L11.3743 12.2506Z" fill="white" stroke="white"/>
</svg>
