<svg width="14" height="9" viewBox="0 0 14 9" fill="none" xmlns="http://www.w3.org/2000/svg">
<path d="M7.04918 6.90164C6.27322 6.90164 5.60656 6.62842 5.04918 6.08197C4.4918 5.52459 4.21311 4.85246 4.21311 4.06557C4.21311 3.28962 4.4918 2.62295 5.04918 2.06557C5.60656 1.5082 6.27322 1.22951 7.04918 1.22951C7.83607 1.22951 8.50273 1.5082 9.04918 2.06557C9.60656 2.62295 9.88525 3.28962 9.88525 4.06557C9.88525 4.85246 9.60656 5.52459 9.04918 6.08197C8.50273 6.62842 7.83607 6.90164 7.04918 6.90164ZM7.04918 2.01639C6.4918 2.01639 6.01093 2.21858 5.60656 2.62295C5.20219 3.02732 5 3.5082 5 4.06557C5 4.63388 5.20219 5.12022 5.60656 5.52459C6.01093 5.91803 6.4918 6.11475 7.04918 6.11475C7.61749 6.11475 8.09836 5.91803 8.4918 5.52459C8.89617 5.12022 9.09836 4.63388 9.09836 4.06557C9.09836 3.5082 8.89617 3.02732 8.4918 2.62295C8.09836 2.21858 7.61749 2.01639 7.04918 2.01639ZM7 8.04918C6.43169 8.04918 5.85792 7.96175 5.27869 7.78689C4.69945 7.61202 4.11475 7.35519 3.52459 7.01639C2.94536 6.6776 2.36066 6.25683 1.77049 5.7541C1.18033 5.25137 0.590164 4.67213 0 4.01639L0.590164 3.55738C0.972678 3.98361 1.39891 4.4153 1.86885 4.85246C2.34973 5.28962 2.86339 5.68852 3.40984 6.04918C3.95628 6.39891 4.53005 6.68852 5.13115 6.91803C5.74317 7.13661 6.36612 7.2459 7 7.2459C7.63388 7.2459 8.25683 7.13661 8.86885 6.91803C9.46994 6.68852 10.0437 6.39344 10.5902 6.03279C11.1366 5.67213 11.6503 5.26776 12.1311 4.81967C12.6011 4.37158 13.0273 3.92896 13.4098 3.4918L14 4.01639C13.4098 4.69399 12.8197 5.28415 12.2295 5.78689C11.6393 6.28962 11.0492 6.71038 10.459 7.04918C9.87978 7.37705 9.30055 7.62842 8.72131 7.80328C8.14208 7.96721 7.56831 8.04918 7 8.04918ZM0.590164 4.47541L0 4.01639C0.590164 3.36066 1.18033 2.78689 1.77049 2.29508C2.36066 1.79235 2.94536 1.37158 3.52459 1.03279C4.11475 0.693989 4.69945 0.437158 5.27869 0.262295C5.85792 0.0874317 6.43169 0 7 0C7.56831 0 8.14208 0.0874317 8.72131 0.262295C9.30055 0.437158 9.87978 0.693989 10.459 1.03279C11.0492 1.37158 11.6393 1.79235 12.2295 2.29508C12.8197 2.78689 13.4098 3.36066 14 4.01639L13.4098 4.47541C13.0273 4.06011 12.6011 3.63388 12.1311 3.19672C11.6503 2.75956 11.1366 2.36612 10.5902 2.01639C10.0437 1.65574 9.46994 1.36066 8.86885 1.13115C8.25683 0.901639 7.63388 0.786885 7 0.786885C6.36612 0.786885 5.74317 0.901639 5.13115 1.13115C4.53005 1.36066 3.95628 1.65574 3.40984 2.01639C2.86339 2.36612 2.34973 2.75956 1.86885 3.19672C1.39891 3.63388 0.972678 4.06011 0.590164 4.47541Z" fill="#D56E4D"/>
</svg>
